<?xml version="1.0" encoding="UTF-8" standalone="no"?>
<!-- Created with Inkscape (http://www.inkscape.org/) -->

<svg
   xmlns:dc="http://purl.org/dc/elements/1.1/"
   xmlns:cc="http://creativecommons.org/ns#"
   xmlns:rdf="http://www.w3.org/1999/02/22-rdf-syntax-ns#"
   xmlns:svg="http://www.w3.org/2000/svg"
   xmlns="http://www.w3.org/2000/svg"
   xmlns:sodipodi="http://sodipodi.sourceforge.net/DTD/sodipodi-0.dtd"
   xmlns:inkscape="http://www.inkscape.org/namespaces/inkscape"
   width="744.09448"
   height="1052.3622"
   id="svg3052"
   version="1.1"
   inkscape:version="0.48.2 r9819"
   sodipodi:docname="New document 1">
  <defs
     id="defs3054" />
  <sodipodi:namedview
     id="base"
     pagecolor="#ffffff"
     bordercolor="#666666"
     borderopacity="1.0"
     inkscape:pageopacity="0.0"
     inkscape:pageshadow="2"
     inkscape:zoom="0.98994949"
     inkscape:cx="485.52036"
     inkscape:cy="604.99854"
     inkscape:document-units="mm"
     inkscape:current-layer="layer1"
     showgrid="true"
     units="mm"
     objecttolerance="20"
     inkscape:window-width="1639"
     inkscape:window-height="910"
     inkscape:window-x="1924"
     inkscape:window-y="48"
     inkscape:window-maximized="0">
    <inkscape:grid
       type="xygrid"
       id="grid3060"
       units="mm"
       empspacing="3"
       visible="true"
       enabled="true"
       snapvisiblegridlinesonly="true"
       spacingx="5mm"
       spacingy="5mm" />
  </sodipodi:namedview>
  <metadata
     id="metadata3057">
    <rdf:RDF>
      <cc:Work
         rdf:about="">
        <dc:format>image/svg+xml</dc:format>
        <dc:type
           rdf:resource="http://purl.org/dc/dcmitype/StillImage" />
        <dc:title></dc:title>
      </cc:Work>
    </rdf:RDF>
  </metadata>
  <g
     inkscape:label="Layer 1"
     inkscape:groupmode="layer"
     id="layer1"
     transform="translate(0,-2.5390623e-6)">
    <path
       sodipodi:type="arc"
       style="fill:#000000;fill-opacity:1;stroke:none"
       id="path3062"
       sodipodi:cx="159.44882"
       sodipodi:cy="892.91339"
       sodipodi:rx="53.149605"
       sodipodi:ry="53.149605"
       d="m 212.59843,892.91339 a 53.149605,53.149605 0 1 1 -106.29921,0 53.149605,53.149605 0 1 1 106.29921,0 z"
       transform="translate(-53.149607,8.7976741e-6)" />
    <path
       transform="translate(265.74803,-1.8596057e-5)"
       d="m 212.59843,892.91339 a 53.149605,53.149605 0 1 1 -106.29921,0 53.149605,53.149605 0 1 1 106.29921,0 z"
       sodipodi:ry="53.149605"
       sodipodi:rx="53.149605"
       sodipodi:cy="892.91339"
       sodipodi:cx="159.44882"
       id="path3832"
       style="fill:#000000;fill-opacity:1;stroke:none"
       sodipodi:type="arc" />
    <path
       sodipodi:type="arc"
       style="fill:#000000;fill-opacity:1;stroke:none"
       id="path3834"
       sodipodi:cx="159.44882"
       sodipodi:cy="892.91339"
       sodipodi:rx="53.149605"
       sodipodi:ry="53.149605"
       d="m 212.59843,892.91339 a 53.149605,53.149605 0 1 1 -106.29921,0 53.149605,53.149605 0 1 1 106.29921,0 z"
       transform="translate(53.149603,-159.44883)" />
    <path
       style="fill:none;stroke:#000000;stroke-width:1px;stroke-linecap:butt;stroke-linejoin:miter;stroke-opacity:1"
       d="m 106.29921,999.21258 425.19685,0"
       id="path3836"
       inkscape:connector-curvature="0"
       transform="translate(0,2.5390623e-6)" />
    <text
       xml:space="preserve"
       style="font-size:40px;font-style:normal;font-weight:normal;line-height:125%;letter-spacing:0px;word-spacing:0px;fill:#000000;fill-opacity:1;stroke:none;font-family:Sans"
       x="275.74802"
       y="991.49603"
       id="text3838"
       sodipodi:linespacing="125%"><tspan
         sodipodi:role="line"
         id="tspan3840"
         x="275.74802"
         y="991.49603"
         style="font-size:24px">120 mm</tspan></text>
    <path
       style="fill:none;stroke:#000000;stroke-width:1px;stroke-linecap:butt;stroke-linejoin:miter;stroke-opacity:1"
       d="m 690.94489,946.06297 0,-265.74803"
       id="path3842"
       inkscape:connector-curvature="0" />
    <text
       xml:space="preserve"
       style="font-size:40px;font-style:normal;font-weight:normal;line-height:125%;letter-spacing:0px;word-spacing:0px;fill:#000000;fill-opacity:1;stroke:none;font-family:Sans"
       x="602.36218"
       y="751.18109"
       id="text3844"
       sodipodi:linespacing="125%"><tspan
         sodipodi:role="line"
         id="tspan3846"
         x="602.36218"
         y="751.18109"
         style="font-size:24px">75 mm</tspan></text>
    <path
       style="fill:none;stroke:#838383;stroke-width:0.35433072;stroke-linecap:butt;stroke-linejoin:miter;stroke-miterlimit:4;stroke-opacity:1;stroke-dasharray:2.12598425, 2.12598425;stroke-dashoffset:0"
       d="M 212.59842,733.46455 106.29921,892.91337"
       id="path3848"
       inkscape:connector-curvature="0" />
    <path
       style="fill:none;stroke:#818181;stroke-width:0.35433072;stroke-linecap:butt;stroke-linejoin:miter;stroke-miterlimit:4;stroke-opacity:1;stroke-dasharray:2.12598425, 2.12598425;stroke-dashoffset:0"
       d="m 106.29921,892.91337 318.89764,0"
       id="path3850"
       inkscape:connector-curvature="0" />
    <path
       style="fill:#ffffff;fill-opacity:1;stroke:none"
       d="m 212.59842,733.46455 -35.43307,53.14961 88.58268,0 0,-53.14961 z"
       id="path3852"
       inkscape:connector-curvature="0" />
    <path
       inkscape:connector-curvature="0"
       id="path3854"
       d="m 212.59842,733.46456 35.43307,-53.14961 -88.58268,0 0,53.14961 z"
       style="fill:#ffffff;fill-opacity:1;stroke:none" />
    <path
       style="fill:#ffffff;fill-opacity:1;stroke:none"
       d="m 106.29921,892.91337 35.43307,-53.1496 17.71654,0 0,53.1496 z"
       id="path3856"
       inkscape:connector-curvature="0" />
    <path
       inkscape:connector-curvature="0"
       id="path3858"
       d="m 106.29921,892.91338 -35.433067,53.1496 -17.71654,0 0,-53.1496 z"
       style="fill:#ffffff;fill-opacity:1;stroke:none" />
    <path
       style="fill:#ffffff;fill-opacity:1;stroke:none"
       d="m 372.04724,892.91337 53.14961,0 0,-53.1496 -53.14961,0 z"
       id="path3860"
       inkscape:connector-curvature="0" />
    <path
       inkscape:connector-curvature="0"
       id="path3862"
       d="m 425.19684,946.06298 53.14961,0 0,-53.1496 -53.14961,0 z"
       style="fill:#ffffff;fill-opacity:1;stroke:none" />
    <path
       transform="translate(53.149603,-159.44883)"
       d="m 212.59843,892.91339 a 53.149605,53.149605 0 1 1 -106.29921,0 53.149605,53.149605 0 1 1 106.29921,0 z"
       sodipodi:ry="53.149605"
       sodipodi:rx="53.149605"
       sodipodi:cy="892.91339"
       sodipodi:cx="159.44882"
       id="path3864"
       style="fill:none;stroke:#818181;stroke-width:0.35433072;stroke-miterlimit:4;stroke-opacity:1;stroke-dasharray:2.12598425, 2.12598425;stroke-dashoffset:0"
       sodipodi:type="arc" />
    <path
       sodipodi:type="arc"
       style="fill:none;stroke:#818181;stroke-width:0.35433072;stroke-miterlimit:4;stroke-opacity:1;stroke-dasharray:2.12598425, 2.12598425;stroke-dashoffset:0"
       id="path3866"
       sodipodi:cx="159.44882"
       sodipodi:cy="892.91339"
       sodipodi:rx="53.149605"
       sodipodi:ry="53.149605"
       d="m 212.59843,892.91339 a 53.149605,53.149605 0 1 1 -106.29921,0 53.149605,53.149605 0 1 1 106.29921,0 z"
       transform="translate(-53.14961,-1.7094208e-5)" />
    <path
       transform="translate(265.74802,-1.8596057e-5)"
       d="m 212.59843,892.91339 a 53.149605,53.149605 0 1 1 -106.29921,0 53.149605,53.149605 0 1 1 106.29921,0 z"
       sodipodi:ry="53.149605"
       sodipodi:rx="53.149605"
       sodipodi:cy="892.91339"
       sodipodi:cx="159.44882"
       id="path3868"
       style="fill:none;stroke:#818181;stroke-width:0.35433072;stroke-miterlimit:4;stroke-opacity:1;stroke-dasharray:2.12598425, 2.12598425;stroke-dashoffset:0"
       sodipodi:type="arc" />
    <path
       style="fill:none;stroke:#828282;stroke-width:0.35433072;stroke-linecap:butt;stroke-linejoin:miter;stroke-miterlimit:4;stroke-opacity:1;stroke-dasharray:2.12598425, 2.12598425;stroke-dashoffset:0"
       d="m 159.44882,733.46455 0,106.29922 -53.14961,0"
       id="path3870"
       inkscape:connector-curvature="0" />
    <path
       style="color:#000000;fill:none;stroke:#828282;stroke-width:0.35433072;stroke-linecap:butt;stroke-linejoin:miter;stroke-miterlimit:4;stroke-opacity:1;stroke-dasharray:2.12598425, 2.12598425;stroke-dashoffset:0;marker:none;visibility:visible;display:inline;overflow:visible;enable-background:accumulate"
       d="m 265.74803,733.46455 0,106.29922 159.44882,0"
       id="path3872"
       inkscape:connector-curvature="0" />
    <path
       style="color:#000000;fill:none;stroke:#828282;stroke-width:0.35433072;stroke-linecap:butt;stroke-linejoin:miter;stroke-miterlimit:4;stroke-opacity:1;stroke-dasharray:2.12598425, 2.12598425;stroke-dashoffset:0;marker:none;visibility:visible;display:inline;overflow:visible;enable-background:accumulate"
       d="m 106.29921,946.06298 318.89764,0"
       id="path3891"
       inkscape:connector-curvature="0" />
    <text
       xml:space="preserve"
       style="font-size:40px;font-style:normal;font-weight:normal;line-height:125%;letter-spacing:0px;word-spacing:0px;fill:#000000;fill-opacity:1;stroke:none;font-family:Sans"
       x="212.5984"
       y="892.91339"
       id="text3910"
       sodipodi:linespacing="125%"><tspan
         sodipodi:role="line"
         id="tspan3912"
         x="212.5984"
         y="892.91339"
         style="font-size:24px">Marker_01</tspan></text>
    <path
       transform="matrix(1,0,0,-1,159.44881,1466.9291)"
       d="m 212.59843,892.91339 a 53.149605,53.149605 0 1 1 -106.29921,0 53.149605,53.149605 0 1 1 106.29921,0 z"
       sodipodi:ry="53.149605"
       sodipodi:rx="53.149605"
       sodipodi:cy="892.91339"
       sodipodi:cx="159.44882"
       id="path3914"
       style="fill:#000000;fill-opacity:1;stroke:none"
       sodipodi:type="arc" />
    <path
       sodipodi:type="arc"
       style="fill:#000000;fill-opacity:1;stroke:none"
       id="path3916"
       sodipodi:cx="159.44882"
       sodipodi:cy="892.91339"
       sodipodi:rx="53.149605"
       sodipodi:ry="53.149605"
       d="m 212.59843,892.91339 a 53.149605,53.149605 0 1 1 -106.29921,0 53.149605,53.149605 0 1 1 106.29921,0 z"
       transform="matrix(1,0,0,-1,478.34645,1466.9291)" />
    <path
       transform="matrix(1,0,0,-1,265.74802,1626.3779)"
       d="m 212.59843,892.91339 a 53.149605,53.149605 0 1 1 -106.29921,0 53.149605,53.149605 0 1 1 106.29921,0 z"
       sodipodi:ry="53.149605"
       sodipodi:rx="53.149605"
       sodipodi:cy="892.91339"
       sodipodi:cx="159.44882"
       id="path3918"
       style="fill:#000000;fill-opacity:1;stroke:none"
       sodipodi:type="arc" />
    <path
       inkscape:connector-curvature="0"
       id="path3920"
       d="M 425.19684,733.46457 318.89763,574.01575"
       style="fill:none;stroke:#838383;stroke-width:0.35433072;stroke-linecap:butt;stroke-linejoin:miter;stroke-miterlimit:4;stroke-opacity:1;stroke-dasharray:2.12598425, 2.12598425;stroke-dashoffset:0" />
    <path
       inkscape:connector-curvature="0"
       id="path3922"
       d="m 318.89763,574.01575 318.89764,0"
       style="fill:none;stroke:#818181;stroke-width:0.35433072;stroke-linecap:butt;stroke-linejoin:miter;stroke-miterlimit:4;stroke-opacity:1;stroke-dasharray:2.12598425, 2.12598425;stroke-dashoffset:0" />
    <path
       inkscape:connector-curvature="0"
       id="path3924"
       d="m 425.19684,733.46457 -35.43307,-53.14961 88.58268,0 0,53.14961 z"
       style="fill:#ffffff;fill-opacity:1;stroke:none" />
    <path
       style="fill:#ffffff;fill-opacity:1;stroke:none"
       d="m 425.19684,733.46456 35.43307,53.14961 -88.58268,0 0,-53.14961 z"
       id="path3926"
       inkscape:connector-curvature="0" />
    <path
       inkscape:connector-curvature="0"
       id="path3928"
       d="m 318.89763,574.01575 35.43307,53.1496 17.71654,0 0,-53.1496 z"
       style="fill:#ffffff;fill-opacity:1;stroke:none" />
    <path
       style="fill:#ffffff;fill-opacity:1;stroke:none"
       d="m 318.89763,574.01574 -35.43307,-53.1496 -17.71654,0 0,53.1496 z"
       id="path3930"
       inkscape:connector-curvature="0" />
    <path
       inkscape:connector-curvature="0"
       id="path3932"
       d="m 584.64566,574.01575 53.14961,0 0,53.1496 -53.14961,0 z"
       style="fill:#ffffff;fill-opacity:1;stroke:none" />
    <path
       style="fill:#ffffff;fill-opacity:1;stroke:none"
       d="m 637.79526,520.86614 53.14961,0 0,53.1496 -53.14961,0 z"
       id="path3934"
       inkscape:connector-curvature="0" />
    <path
       sodipodi:type="arc"
       style="fill:none;stroke:#818181;stroke-width:0.35433072;stroke-miterlimit:4;stroke-opacity:1;stroke-dasharray:2.12598425, 2.12598425;stroke-dashoffset:0"
       id="path3936"
       sodipodi:cx="159.44882"
       sodipodi:cy="892.91339"
       sodipodi:rx="53.149605"
       sodipodi:ry="53.149605"
       d="m 212.59843,892.91339 a 53.149605,53.149605 0 1 1 -106.29921,0 53.149605,53.149605 0 1 1 106.29921,0 z"
       transform="matrix(1,0,0,-1,265.74802,1626.3779)" />
    <path
       transform="matrix(1,0,0,-1,159.44881,1466.9291)"
       d="m 212.59843,892.91339 a 53.149605,53.149605 0 1 1 -106.29921,0 53.149605,53.149605 0 1 1 106.29921,0 z"
       sodipodi:ry="53.149605"
       sodipodi:rx="53.149605"
       sodipodi:cy="892.91339"
       sodipodi:cx="159.44882"
       id="path3938"
       style="fill:none;stroke:#818181;stroke-width:0.35433072;stroke-miterlimit:4;stroke-opacity:1;stroke-dasharray:2.12598425, 2.12598425;stroke-dashoffset:0"
       sodipodi:type="arc" />
    <path
       sodipodi:type="arc"
       style="fill:none;stroke:#818181;stroke-width:0.35433072;stroke-miterlimit:4;stroke-opacity:1;stroke-dasharray:2.12598425, 2.12598425;stroke-dashoffset:0"
       id="path3940"
       sodipodi:cx="159.44882"
       sodipodi:cy="892.91339"
       sodipodi:rx="53.149605"
       sodipodi:ry="53.149605"
       d="m 212.59843,892.91339 a 53.149605,53.149605 0 1 1 -106.29921,0 53.149605,53.149605 0 1 1 106.29921,0 z"
       transform="matrix(1,0,0,-1,478.34644,1466.9291)" />
    <path
       inkscape:connector-curvature="0"
       id="path3942"
       d="m 372.04724,733.46457 0,-106.29922 -53.14961,0"
       style="fill:none;stroke:#828282;stroke-width:0.35433072;stroke-linecap:butt;stroke-linejoin:miter;stroke-miterlimit:4;stroke-opacity:1;stroke-dasharray:2.12598425, 2.12598425;stroke-dashoffset:0" />
    <path
       inkscape:connector-curvature="0"
       id="path3944"
       d="m 478.34645,733.46457 0,-106.29922 159.44882,0"
       style="color:#000000;fill:none;stroke:#828282;stroke-width:0.35433072;stroke-linecap:butt;stroke-linejoin:miter;stroke-miterlimit:4;stroke-opacity:1;stroke-dasharray:2.12598425, 2.12598425;stroke-dashoffset:0;marker:none;visibility:visible;display:inline;overflow:visible;enable-background:accumulate" />
    <path
       inkscape:connector-curvature="0"
       id="path3946"
       d="m 318.89763,520.86614 318.89764,0"
       style="color:#000000;fill:none;stroke:#828282;stroke-width:0.35433072;stroke-linecap:butt;stroke-linejoin:miter;stroke-miterlimit:4;stroke-opacity:1;stroke-dasharray:2.12598425, 2.12598425;stroke-dashoffset:0;marker:none;visibility:visible;display:inline;overflow:visible;enable-background:accumulate" />
    <text
       sodipodi:linespacing="125%"
       id="text3952"
       y="574.01575"
       x="425.19684"
       style="font-size:40px;font-style:normal;font-weight:normal;line-height:125%;letter-spacing:0px;word-spacing:0px;fill:#000000;fill-opacity:1;stroke:none;font-family:Sans"
       xml:space="preserve"><tspan
         style="font-size:24px"
         y="574.01575"
         x="425.19684"
         id="tspan3954"
         sodipodi:role="line">Marker_02</tspan></text>
    <path
       transform="translate(-53.149599,-478.34647)"
       d="m 212.59843,892.91339 a 53.149605,53.149605 0 1 1 -106.29921,0 53.149605,53.149605 0 1 1 106.29921,0 z"
       sodipodi:ry="53.149605"
       sodipodi:rx="53.149605"
       sodipodi:cy="892.91339"
       sodipodi:cx="159.44882"
       id="path3956"
       style="fill:#000000;fill-opacity:1;stroke:none"
       sodipodi:type="arc" />
    <path
       sodipodi:type="arc"
       style="fill:#000000;fill-opacity:1;stroke:none"
       id="path3958"
       sodipodi:cx="159.44882"
       sodipodi:cy="892.91339"
       sodipodi:rx="53.149605"
       sodipodi:ry="53.149605"
       d="m 212.59843,892.91339 a 53.149605,53.149605 0 1 1 -106.29921,0 53.149605,53.149605 0 1 1 106.29921,0 z"
       transform="translate(265.74804,-478.3465)" />
    <path
       transform="translate(53.149611,-637.79531)"
       d="m 212.59843,892.91339 a 53.149605,53.149605 0 1 1 -106.29921,0 53.149605,53.149605 0 1 1 106.29921,0 z"
       sodipodi:ry="53.149605"
       sodipodi:rx="53.149605"
       sodipodi:cy="892.91339"
       sodipodi:cx="159.44882"
       id="path3960"
       style="fill:#000000;fill-opacity:1;stroke:none"
       sodipodi:type="arc" />
    <path
       inkscape:connector-curvature="0"
       id="path3968"
       d="M 212.59843,255.11807 106.29922,414.56689"
       style="fill:none;stroke:#838383;stroke-width:0.35433072;stroke-linecap:butt;stroke-linejoin:miter;stroke-miterlimit:4;stroke-opacity:1;stroke-dasharray:2.12598425, 2.12598425;stroke-dashoffset:0" />
    <path
       inkscape:connector-curvature="0"
       id="path3970"
       d="m 106.29922,414.56689 318.89764,0"
       style="fill:none;stroke:#818181;stroke-width:0.35433072;stroke-linecap:butt;stroke-linejoin:miter;stroke-miterlimit:4;stroke-opacity:1;stroke-dasharray:2.12598425, 2.12598425;stroke-dashoffset:0" />
    <path
       inkscape:connector-curvature="0"
       id="path3972"
       d="m 159.44882,255.11809 0,53.14961 17.71653,0 35.43308,-53.14961 z"
       style="fill:#ffffff;fill-opacity:1;stroke:none"
       sodipodi:nodetypes="ccccc" />
    <path
       style="fill:#ffffff;fill-opacity:1;stroke:none"
       d="m 265.74803,255.11809 0,-53.14961 -17.71653,0 -35.43307,53.14961 z"
       id="path3974"
       inkscape:connector-curvature="0"
       sodipodi:nodetypes="ccccc" />
    <path
       inkscape:connector-curvature="0"
       id="path3976"
       d="m 53.149606,414.56691 0,-53.14961 88.582674,0 -35.43307,53.14961 z"
       style="fill:#ffffff;fill-opacity:1;stroke:none"
       sodipodi:nodetypes="ccccc" />
    <path
       style="fill:#ffffff;fill-opacity:1;stroke:none"
       d="m 159.44882,414.56691 0,53.14961 -88.582678,0 35.433068,-53.14961 z"
       id="path3978"
       inkscape:connector-curvature="0"
       sodipodi:nodetypes="ccccc" />
    <path
       inkscape:connector-curvature="0"
       id="path3980"
       d="m 372.04724,467.71652 53.14961,0 0,-53.1496 -53.14961,0 z"
       style="fill:#ffffff;fill-opacity:1;stroke:none" />
    <path
       style="fill:#ffffff;fill-opacity:1;stroke:none"
       d="m 425.19685,414.5669 53.14961,0 0,-53.1496 -53.14961,0 z"
       id="path3982"
       inkscape:connector-curvature="0" />
    <path
       sodipodi:type="arc"
       style="fill:none;stroke:#818181;stroke-width:0.35433072;stroke-miterlimit:4;stroke-opacity:1;stroke-dasharray:2.12598425, 2.12598425;stroke-dashoffset:0"
       id="path3984"
       sodipodi:cx="159.44882"
       sodipodi:cy="892.91339"
       sodipodi:rx="53.149605"
       sodipodi:ry="53.149605"
       d="m 212.59843,892.91339 a 53.149605,53.149605 0 1 1 -106.29921,0 53.149605,53.149605 0 1 1 106.29921,0 z"
       transform="translate(53.149611,-637.79531)" />
    <path
       transform="translate(-53.149602,-478.3465)"
       d="m 212.59843,892.91339 a 53.149605,53.149605 0 1 1 -106.29921,0 53.149605,53.149605 0 1 1 106.29921,0 z"
       sodipodi:ry="53.149605"
       sodipodi:rx="53.149605"
       sodipodi:cy="892.91339"
       sodipodi:cx="159.44882"
       id="path3986"
       style="fill:none;stroke:#818181;stroke-width:0.35433072;stroke-miterlimit:4;stroke-opacity:1;stroke-dasharray:2.12598425, 2.12598425;stroke-dashoffset:0"
       sodipodi:type="arc" />
    <path
       sodipodi:type="arc"
       style="fill:none;stroke:#818181;stroke-width:0.35433072;stroke-miterlimit:4;stroke-opacity:1;stroke-dasharray:2.12598425, 2.12598425;stroke-dashoffset:0"
       id="path3988"
       sodipodi:cx="159.44882"
       sodipodi:cy="892.91339"
       sodipodi:rx="53.149605"
       sodipodi:ry="53.149605"
       d="m 212.59843,892.91339 a 53.149605,53.149605 0 1 1 -106.29921,0 53.149605,53.149605 0 1 1 106.29921,0 z"
       transform="translate(265.74803,-478.3465)" />
    <path
       inkscape:connector-curvature="0"
       id="path3990"
       d="m 159.44883,255.11807 0,106.29922 -53.14961,0"
       style="fill:none;stroke:#828282;stroke-width:0.35433072;stroke-linecap:butt;stroke-linejoin:miter;stroke-miterlimit:4;stroke-opacity:1;stroke-dasharray:2.12598425, 2.12598425;stroke-dashoffset:0" />
    <path
       inkscape:connector-curvature="0"
       id="path3992"
       d="m 265.74804,255.11807 0,106.29922 159.44882,0"
       style="color:#000000;fill:none;stroke:#828282;stroke-width:0.35433072;stroke-linecap:butt;stroke-linejoin:miter;stroke-miterlimit:4;stroke-opacity:1;stroke-dasharray:2.12598425, 2.12598425;stroke-dashoffset:0;marker:none;visibility:visible;display:inline;overflow:visible;enable-background:accumulate" />
    <path
       inkscape:connector-curvature="0"
       id="path3994"
       d="m 106.29922,467.7165 318.89764,0"
       style="color:#000000;fill:none;stroke:#828282;stroke-width:0.35433072;stroke-linecap:butt;stroke-linejoin:miter;stroke-miterlimit:4;stroke-opacity:1;stroke-dasharray:2.12598425, 2.12598425;stroke-dashoffset:0;marker:none;visibility:visible;display:inline;overflow:visible;enable-background:accumulate" />
    <text
       sodipodi:linespacing="125%"
       id="text3996"
       y="414.56693"
       x="212.59842"
       style="font-size:40px;font-style:normal;font-weight:normal;line-height:125%;letter-spacing:0px;word-spacing:0px;fill:#000000;fill-opacity:1;stroke:none;font-family:Sans"
       xml:space="preserve"><tspan
         style="font-size:24px"
         y="414.56693"
         x="212.59842"
         id="tspan3998"
         sodipodi:role="line">Marker_03</tspan></text>
    <text
       xml:space="preserve"
       style="font-size:40px;font-style:normal;font-weight:normal;line-height:125%;letter-spacing:0px;word-spacing:0px;fill:#000000;fill-opacity:1;stroke:none;font-family:Sans"
       x="425.19684"
       y="95.669273"
       id="text4034"
       sodipodi:linespacing="125%"><tspan
         sodipodi:role="line"
         id="tspan4036"
         x="425.19684"
         y="95.669273"
         style="font-size:24px">Marker_04</tspan></text>
    <path
       sodipodi:type="arc"
       style="fill:#000000;fill-opacity:1;stroke:none"
       id="path4038"
       sodipodi:cx="159.44882"
       sodipodi:cy="892.91339"
       sodipodi:rx="53.149605"
       sodipodi:ry="53.149605"
       d="m 212.59843,892.91339 a 53.149605,53.149605 0 1 1 -106.29921,0 53.149605,53.149605 0 1 1 106.29921,0 z"
       transform="matrix(1,0,0,-1,159.44883,988.5826)" />
    <path
       transform="matrix(1,0,0,-1,478.34647,988.5827)"
       d="m 212.59843,892.91339 a 53.149605,53.149605 0 1 1 -106.29921,0 53.149605,53.149605 0 1 1 106.29921,0 z"
       sodipodi:ry="53.149605"
       sodipodi:rx="53.149605"
       sodipodi:cy="892.91339"
       sodipodi:cx="159.44882"
       id="path4040"
       style="fill:#000000;fill-opacity:1;stroke:none"
       sodipodi:type="arc" />
    <path
       sodipodi:type="arc"
       style="fill:#000000;fill-opacity:1;stroke:none"
       id="path4042"
       sodipodi:cx="159.44882"
       sodipodi:cy="892.91339"
       sodipodi:rx="53.149605"
       sodipodi:ry="53.149605"
       d="m 212.59843,892.91339 a 53.149605,53.149605 0 1 1 -106.29921,0 53.149605,53.149605 0 1 1 106.29921,0 z"
       transform="matrix(1,0,0,-1,265.74804,1148.0315)" />
    <path
       style="fill:none;stroke:#838383;stroke-width:0.35433072;stroke-linecap:butt;stroke-linejoin:miter;stroke-miterlimit:4;stroke-opacity:1;stroke-dasharray:2.12598425, 2.12598425;stroke-dashoffset:0"
       d="M 425.19686,255.11811 318.89765,95.669291"
       id="path4044"
       inkscape:connector-curvature="0" />
    <path
       style="fill:none;stroke:#818181;stroke-width:0.35433072;stroke-linecap:butt;stroke-linejoin:miter;stroke-miterlimit:4;stroke-opacity:1;stroke-dasharray:2.12598425, 2.12598425;stroke-dashoffset:0"
       d="m 318.89765,95.669291 318.89764,0"
       id="path4046"
       inkscape:connector-curvature="0" />
    <path
       sodipodi:nodetypes="ccccc"
       style="fill:#ffffff;fill-opacity:1;stroke:none"
       d="m 372.04725,255.11809 0,-53.14961 17.71653,0 35.43308,53.14961 z"
       id="path4048"
       inkscape:connector-curvature="0" />
    <path
       sodipodi:nodetypes="ccccc"
       inkscape:connector-curvature="0"
       id="path4050"
       d="m 478.34646,255.11809 0,53.14961 -17.71653,0 -35.43307,-53.14961 z"
       style="fill:#ffffff;fill-opacity:1;stroke:none" />
    <path
       sodipodi:nodetypes="ccccc"
       style="fill:#ffffff;fill-opacity:1;stroke:none"
       d="m 265.74803,95.669271 0,53.149609 88.58268,0 -35.43307,-53.149609 z"
       id="path4052"
       inkscape:connector-curvature="0" />
    <path
       sodipodi:nodetypes="ccccc"
       inkscape:connector-curvature="0"
       id="path4054"
       d="m 372.04725,95.669271 0,-53.14961 -88.58268,0 35.43307,53.14961 z"
       style="fill:#ffffff;fill-opacity:1;stroke:none" />
    <path
       style="fill:#ffffff;fill-opacity:1;stroke:none"
       d="m 584.64567,42.519661 53.14961,0 0,53.1496 -53.14961,0 z"
       id="path4056"
       inkscape:connector-curvature="0" />
    <path
       inkscape:connector-curvature="0"
       id="path4058"
       d="m 637.79528,95.669281 53.14961,0 0,53.149599 -53.14961,0 z"
       style="fill:#ffffff;fill-opacity:1;stroke:none" />
    <path
       transform="matrix(1,0,0,-1,265.74804,1148.0315)"
       d="m 212.59843,892.91339 a 53.149605,53.149605 0 1 1 -106.29921,0 53.149605,53.149605 0 1 1 106.29921,0 z"
       sodipodi:ry="53.149605"
       sodipodi:rx="53.149605"
       sodipodi:cy="892.91339"
       sodipodi:cx="159.44882"
       id="path4060"
       style="fill:none;stroke:#818181;stroke-width:0.35433072;stroke-miterlimit:4;stroke-opacity:1;stroke-dasharray:2.12598425, 2.12598425;stroke-dashoffset:0"
       sodipodi:type="arc" />
    <path
       sodipodi:type="arc"
       style="fill:none;stroke:#818181;stroke-width:0.35433072;stroke-miterlimit:4;stroke-opacity:1;stroke-dasharray:2.12598425, 2.12598425;stroke-dashoffset:0"
       id="path4062"
       sodipodi:cx="159.44882"
       sodipodi:cy="892.91339"
       sodipodi:rx="53.149605"
       sodipodi:ry="53.149605"
       d="m 212.59843,892.91339 a 53.149605,53.149605 0 1 1 -106.29921,0 53.149605,53.149605 0 1 1 106.29921,0 z"
       transform="matrix(1,0,0,-1,159.44882,988.5827)" />
    <path
       transform="matrix(1,0,0,-1,478.34646,988.5827)"
       d="m 212.59843,892.91339 a 53.149605,53.149605 0 1 1 -106.29921,0 53.149605,53.149605 0 1 1 106.29921,0 z"
       sodipodi:ry="53.149605"
       sodipodi:rx="53.149605"
       sodipodi:cy="892.91339"
       sodipodi:cx="159.44882"
       id="path4064"
       style="fill:none;stroke:#818181;stroke-width:0.35433072;stroke-miterlimit:4;stroke-opacity:1;stroke-dasharray:2.12598425, 2.12598425;stroke-dashoffset:0"
       sodipodi:type="arc" />
    <path
       style="fill:none;stroke:#828282;stroke-width:0.35433072;stroke-linecap:butt;stroke-linejoin:miter;stroke-miterlimit:4;stroke-opacity:1;stroke-dasharray:2.12598425, 2.12598425;stroke-dashoffset:0"
       d="m 372.04726,255.11811 0,-106.29922 -53.14961,0"
       id="path4066"
       inkscape:connector-curvature="0" />
    <path
       style="color:#000000;fill:none;stroke:#828282;stroke-width:0.35433072;stroke-linecap:butt;stroke-linejoin:miter;stroke-miterlimit:4;stroke-opacity:1;stroke-dasharray:2.12598425, 2.12598425;stroke-dashoffset:0;marker:none;visibility:visible;display:inline;overflow:visible;enable-background:accumulate"
       d="m 478.34647,255.11811 0,-106.29922 159.44882,0"
       id="path4068"
       inkscape:connector-curvature="0" />
    <path
       style="color:#000000;fill:none;stroke:#828282;stroke-width:0.35433072;stroke-linecap:butt;stroke-linejoin:miter;stroke-miterlimit:4;stroke-opacity:1;stroke-dasharray:2.12598425, 2.12598425;stroke-dashoffset:0;marker:none;visibility:visible;display:inline;overflow:visible;enable-background:accumulate"
       d="m 318.89765,42.519681 318.89764,0"
       id="path4070"
       inkscape:connector-curvature="0" />
  </g>
</svg>
