<?xml version="1.0" encoding="UTF-8" standalone="no"?>
<!-- Created with Inkscape (http://www.inkscape.org/) -->

<svg
   xmlns:dc="http://purl.org/dc/elements/1.1/"
   xmlns:cc="http://creativecommons.org/ns#"
   xmlns:rdf="http://www.w3.org/1999/02/22-rdf-syntax-ns#"
   xmlns:svg="http://www.w3.org/2000/svg"
   xmlns="http://www.w3.org/2000/svg"
   xmlns:sodipodi="http://sodipodi.sourceforge.net/DTD/sodipodi-0.dtd"
   xmlns:inkscape="http://www.inkscape.org/namespaces/inkscape"
   width="744.09448"
   height="1052.3622"
   id="svg2"
   version="1.1"
   inkscape:version="0.48.4 r9939"
   sodipodi:docname="MicronStylus-Markers-1.0.svg">
  <defs
     id="defs4" />
  <sodipodi:namedview
     id="base"
     pagecolor="#ffffff"
     bordercolor="#666666"
     borderopacity="1.0"
     inkscape:pageopacity="0.0"
     inkscape:pageshadow="2"
     inkscape:zoom="0.7"
     inkscape:cx="272.12053"
     inkscape:cy="619.61179"
     inkscape:document-units="mm"
     inkscape:current-layer="layer1"
     showgrid="true"
     units="mm"
     objecttolerance="10000"
     inkscape:window-width="1825"
     inkscape:window-height="1057"
     inkscape:window-x="87"
     inkscape:window-y="-8"
     inkscape:window-maximized="1">
    <inkscape:grid
       type="xygrid"
       id="grid2985"
       units="mm"
       empspacing="3"
       visible="true"
       enabled="true"
       snapvisiblegridlinesonly="true"
       spacingx="5mm"
       spacingy="5mm" />
  </sodipodi:namedview>
  <metadata
     id="metadata7">
    <rdf:RDF>
      <cc:Work
         rdf:about="">
        <dc:format>image/svg+xml</dc:format>
        <dc:type
           rdf:resource="http://purl.org/dc/dcmitype/StillImage" />
        <dc:title />
      </cc:Work>
    </rdf:RDF>
  </metadata>
  <g
     inkscape:label="Layer 1"
     inkscape:groupmode="layer"
     id="layer1"
     transform="translate(0,-2.5390623e-6)">
    <path
       sodipodi:type="arc"
       style="fill:#000000;fill-opacity:1;stroke:none"
       id="path2987"
       sodipodi:cx="159.44882"
       sodipodi:cy="201.96848"
       sodipodi:rx="53.149605"
       sodipodi:ry="53.149605"
       d="m 212.59843,201.96848 a 53.149605,53.149605 0 1 1 -106.29921,0 53.149605,53.149605 0 1 1 106.29921,0 z"
       transform="translate(-53.21158,-53.151615)" />
    <path
       sodipodi:type="arc"
       style="fill:#000000;fill-opacity:1;stroke:none"
       id="path2989"
       sodipodi:cx="478.34647"
       sodipodi:cy="201.96848"
       sodipodi:rx="53.149605"
       sodipodi:ry="53.149605"
       d="m 531.49607,201.96848 a 53.149605,53.149605 0 1 1 -106.29921,0 53.149605,53.149605 0 1 1 106.29921,0 z"
       transform="translate(-53.21158,-53.151615)" />
    <path
       sodipodi:type="arc"
       style="fill:#000000;fill-opacity:1;stroke:none"
       id="path2991"
       sodipodi:cx="265.74802"
       sodipodi:cy="95.669266"
       sodipodi:rx="53.149605"
       sodipodi:ry="53.149605"
       d="m 318.89762,95.669266 a 53.149605,53.149605 0 1 1 -106.29921,0 53.149605,53.149605 0 1 1 106.29921,0 z"
       transform="translate(-53.211563,194.87988)" />
    <path
       style="fill:none;stroke:#7d7d7d;stroke-width:0.35433072;stroke-linecap:butt;stroke-linejoin:miter;stroke-miterlimit:4;stroke-opacity:1;stroke-dasharray:2.83464567, 2.83464567;stroke-dashoffset:0"
       d="M 212.53645,290.54915 106.23724,148.81686"
       id="path3761"
       inkscape:connector-curvature="0" />
    <rect
       inkscape:transform-center-y="5.3265777"
       inkscape:transform-center-x="-37.203058"
       rx="1.6219973e-006"
       transform="matrix(0.59974995,0.80018748,-0.80018748,0.59974995,0,0)"
       y="-48.961777"
       x="306.8129"
       height="53.149605"
       width="53.149605"
       id="rect3765"
       style="fill:#ffffff;fill-opacity:1;stroke:none" />
    <path
       style="fill:#ffffff;fill-opacity:1;stroke:none"
       d="m 106.23724,148.81686 53.14961,70.86614 0,-70.86614 z"
       id="path3773"
       inkscape:connector-curvature="0" />
    <path
       inkscape:connector-curvature="0"
       id="path3775"
       d="m 106.23724,148.81686 -53.14961,-70.866138 0,70.866138 z"
       style="fill:#ffffff;fill-opacity:1;stroke:none" />
    <rect
       style="fill:#ffffff;fill-opacity:1;stroke:none"
       id="rect3777"
       width="53.149605"
       height="53.149605"
       x="359.96249"
       y="4.1878309"
       transform="matrix(0.59974995,0.80018748,-0.80018748,0.59974995,0,0)"
       rx="1.6219973e-006"
       inkscape:transform-center-x="-37.203058"
       inkscape:transform-center-y="5.3265777" />
    <rect
       style="fill:#ffffff;fill-opacity:1;stroke:none"
       id="rect3779"
       width="53.149605"
       height="53.149605"
       x="371.98529"
       y="148.81686"
       rx="1.6219973e-006" />
    <rect
       rx="1.6219973e-006"
       y="95.667259"
       x="425.13492"
       height="53.149605"
       width="53.149605"
       id="rect3781"
       style="fill:#ffffff;fill-opacity:1;stroke:none" />
    <path
       style="fill:none;stroke:#808080;stroke-width:0.35433072;stroke-linecap:butt;stroke-linejoin:miter;stroke-miterlimit:4;stroke-opacity:1;stroke-dasharray:none"
       d="m 106.23724,201.96647 53.14961,0 0,88.58268"
       id="path3783"
       inkscape:connector-curvature="0" />
    <path
       style="fill:none;stroke:#7f7f7f;stroke-width:0.35433072;stroke-linecap:butt;stroke-linejoin:miter;stroke-miterlimit:4;stroke-opacity:1;stroke-dasharray:none"
       d="m 106.23724,95.667265 318.89764,0"
       id="path3785"
       inkscape:connector-curvature="0" />
    <path
       style="fill:none;stroke:#7f7f7f;stroke-width:0.35433072;stroke-linecap:butt;stroke-linejoin:miter;stroke-miterlimit:4;stroke-opacity:1;stroke-dasharray:none"
       d="m 425.13488,201.96647 -159.44882,0 0,88.58268"
       id="path3787"
       inkscape:connector-curvature="0" />
    <path
       transform="translate(-53.21158,-53.151615)"
       d="m 531.49607,201.96848 a 53.149605,53.149605 0 1 1 -106.29921,0 53.149605,53.149605 0 1 1 106.29921,0 z"
       sodipodi:ry="53.149605"
       sodipodi:rx="53.149605"
       sodipodi:cy="201.96848"
       sodipodi:cx="478.34647"
       id="path3789"
       style="fill:none;stroke:#7f7f7f;stroke-width:0.35433072;stroke-linecap:round;stroke-linejoin:miter;stroke-miterlimit:4;stroke-opacity:1;stroke-dasharray:none;stroke-dashoffset:0"
       sodipodi:type="arc" />
    <path
       transform="translate(-53.21158,-53.151615)"
       d="m 212.59843,201.96848 a 53.149605,53.149605 0 1 1 -106.29921,0 53.149605,53.149605 0 1 1 106.29921,0 z"
       sodipodi:ry="53.149605"
       sodipodi:rx="53.149605"
       sodipodi:cy="201.96848"
       sodipodi:cx="159.44882"
       id="path3791"
       style="fill:none;stroke:#7f7f7f;stroke-width:0.35433072;stroke-linecap:round;stroke-linejoin:miter;stroke-miterlimit:4;stroke-opacity:1;stroke-dasharray:none;stroke-dashoffset:0"
       sodipodi:type="arc" />
    <path
       transform="translate(-53.211563,194.87988)"
       d="m 318.89762,95.669266 a 53.149605,53.149605 0 1 1 -106.29921,0 53.149605,53.149605 0 1 1 106.29921,0 z"
       sodipodi:ry="53.149605"
       sodipodi:rx="53.149605"
       sodipodi:cy="95.669266"
       sodipodi:cx="265.74802"
       id="path3793"
       style="fill:none;stroke:#7f7f7f;stroke-width:0.35433072;stroke-linecap:round;stroke-linejoin:miter;stroke-miterlimit:4;stroke-opacity:1;stroke-dasharray:none;stroke-dashoffset:0"
       sodipodi:type="arc" />
    <path
       transform="translate(-53.149566,425.19681)"
       d="m 212.59843,201.96848 a 53.149605,53.149605 0 1 1 -106.29921,0 53.149605,53.149605 0 1 1 106.29921,0 z"
       sodipodi:ry="53.149605"
       sodipodi:rx="53.149605"
       sodipodi:cy="201.96848"
       sodipodi:cx="159.44882"
       id="path3795"
       style="fill:#000000;fill-opacity:1;stroke:none"
       sodipodi:type="arc" />
    <path
       transform="translate(-53.149566,425.19681)"
       d="m 531.49607,201.96848 a 53.149605,53.149605 0 1 1 -106.29921,0 53.149605,53.149605 0 1 1 106.29921,0 z"
       sodipodi:ry="53.149605"
       sodipodi:rx="53.149605"
       sodipodi:cy="201.96848"
       sodipodi:cx="478.34647"
       id="path3797"
       style="fill:#000000;fill-opacity:1;stroke:none"
       sodipodi:type="arc" />
    <path
       transform="translate(-53.149549,673.2283)"
       d="m 318.89762,95.669266 a 53.149605,53.149605 0 1 1 -106.29921,0 53.149605,53.149605 0 1 1 106.29921,0 z"
       sodipodi:ry="53.149605"
       sodipodi:rx="53.149605"
       sodipodi:cy="95.669266"
       sodipodi:cx="265.74802"
       id="path3799"
       style="fill:#000000;fill-opacity:1;stroke:none"
       sodipodi:type="arc" />
    <path
       inkscape:connector-curvature="0"
       id="path3801"
       d="M 265.74807,822.04721 159.44886,680.31492"
       style="fill:none;stroke:#7d7d7d;stroke-width:0.35433072;stroke-linecap:butt;stroke-linejoin:miter;stroke-miterlimit:4;stroke-opacity:1;stroke-dasharray:2.83464567, 2.83464567;stroke-dashoffset:0" />
    <rect
       style="fill:#ffffff;fill-opacity:1;stroke:none"
       id="rect3803"
       width="53.149605"
       height="53.149605"
       x="689.61853"
       y="291.02765"
       transform="matrix(0.59974995,0.80018748,-0.80018748,0.59974995,0,0)"
       rx="1.6219973e-006"
       inkscape:transform-center-x="-37.203058"
       inkscape:transform-center-y="5.3265777" />
    <rect
       inkscape:transform-center-y="5.3265777"
       inkscape:transform-center-x="-37.203058"
       rx="1.6219973e-006"
       transform="matrix(0.59974995,0.80018748,-0.80018748,0.59974995,0,0)"
       y="237.87802"
       x="742.76813"
       height="53.149605"
       width="53.149605"
       id="rect3809"
       style="fill:#ffffff;fill-opacity:1;stroke:none" />
    <rect
       rx="1.6219973e-006"
       y="574.01569"
       x="372.04724"
       height="53.149605"
       width="53.149605"
       id="rect3811"
       style="fill:#ffffff;fill-opacity:1;stroke:none" />
    <rect
       style="fill:#ffffff;fill-opacity:1;stroke:none"
       id="rect3813"
       width="53.149605"
       height="53.149605"
       x="425.19687"
       y="627.16534"
       rx="1.6219973e-006" />
    <path
       inkscape:connector-curvature="0"
       id="path3819"
       d="m 478.34648,698.03146 -159.44882,0 0,88.58268"
       style="fill:none;stroke:#7f7f7f;stroke-width:0.35433072;stroke-linecap:butt;stroke-linejoin:miter;stroke-miterlimit:4;stroke-opacity:1;stroke-dasharray:none" />
    <path
       sodipodi:type="arc"
       style="fill:none;stroke:#7f7f7f;stroke-width:0.35433072;stroke-linecap:round;stroke-linejoin:miter;stroke-miterlimit:4;stroke-opacity:1;stroke-dasharray:none;stroke-dashoffset:0"
       id="path3821"
       sodipodi:cx="478.34647"
       sodipodi:cy="201.96848"
       sodipodi:rx="53.149605"
       sodipodi:ry="53.149605"
       d="m 531.49607,201.96848 a 53.149605,53.149605 0 1 1 -106.29921,0 53.149605,53.149605 0 1 1 106.29921,0 z"
       transform="translate(-53.149566,425.19681)" />
    <path
       inkscape:connector-curvature="0"
       id="path3831"
       d="m 106.29927,627.16528 53.14961,70.86614 -106.299229,0 0,-70.86614 53.149619,0"
       style="fill:#ffffff;fill-opacity:1;stroke:none" />
    <path
       inkscape:connector-curvature="0"
       id="path3815"
       d="m 159.44886,733.46453 53.14961,0 0,88.58268"
       style="fill:none;stroke:#808080;stroke-width:0.35433072;stroke-linecap:butt;stroke-linejoin:miter;stroke-miterlimit:4;stroke-opacity:1;stroke-dasharray:none" />
    <path
       style="fill:#ffffff;fill-opacity:1;stroke:none"
       d="m 106.29927,627.16528 -53.149619,-70.86614 106.299229,0 0,70.86614 -53.14961,0"
       id="path3829"
       inkscape:connector-curvature="0" />
    <path
       inkscape:connector-curvature="0"
       id="path3817"
       d="m 106.29927,574.01569 318.89764,0"
       style="fill:none;stroke:#7f7f7f;stroke-width:0.35433072;stroke-linecap:butt;stroke-linejoin:miter;stroke-miterlimit:4;stroke-opacity:1;stroke-dasharray:none" />
    <path
       sodipodi:type="arc"
       style="fill:none;stroke:#7f7f7f;stroke-width:0.35433072;stroke-linecap:round;stroke-linejoin:miter;stroke-miterlimit:4;stroke-opacity:1;stroke-dasharray:none;stroke-dashoffset:0"
       id="path3823"
       sodipodi:cx="159.44882"
       sodipodi:cy="201.96848"
       sodipodi:rx="53.149605"
       sodipodi:ry="53.149605"
       d="m 212.59843,201.96848 a 53.149605,53.149605 0 1 1 -106.29921,0 53.149605,53.149605 0 1 1 106.29921,0 z"
       transform="translate(-53.149566,425.19681)" />
    <path
       sodipodi:type="arc"
       style="fill:none;stroke:#7f7f7f;stroke-width:0.35433072;stroke-linecap:round;stroke-linejoin:miter;stroke-miterlimit:4;stroke-opacity:1;stroke-dasharray:none;stroke-dashoffset:0"
       id="path3825"
       sodipodi:cx="265.74802"
       sodipodi:cy="95.669266"
       sodipodi:rx="53.149605"
       sodipodi:ry="53.149605"
       d="m 318.89762,95.669266 a 53.149605,53.149605 0 1 1 -106.29921,0 53.149605,53.149605 0 1 1 106.29921,0 z"
       transform="translate(-53.149549,673.2283)" />
    <text
       sodipodi:linespacing="125%"
       id="text3839"
       y="627.16534"
       x="212.59842"
       style="font-size:40px;font-style:normal;font-weight:normal;line-height:125%;letter-spacing:0px;word-spacing:0px;fill:#000000;fill-opacity:1;stroke:none;font-family:Sans"
       xml:space="preserve"><tspan
         style="font-size:14px"
         id="tspan3843"
         y="627.16534"
         x="212.59842"
         sodipodi:role="line">MicronStylus 1.0</tspan></text>
    <path
       sodipodi:type="arc"
       style="fill:#000000;fill-opacity:1;stroke:none"
       id="path3029"
       sodipodi:cx="159.44882"
       sodipodi:cy="201.96848"
       sodipodi:rx="53.149605"
       sodipodi:ry="53.149605"
       d="m 212.59843,201.96848 a 53.149605,53.149605 0 1 1 -106.29921,0 53.149605,53.149605 0 1 1 106.29921,0 z"
       transform="matrix(1,0,0,-1,159.44885,1148.0314)" />
    <path
       sodipodi:type="arc"
       style="fill:#000000;fill-opacity:1;stroke:none"
       id="path3031"
       sodipodi:cx="478.34647"
       sodipodi:cy="201.96848"
       sodipodi:rx="53.149605"
       sodipodi:ry="53.149605"
       d="m 531.49607,201.96848 a 53.149605,53.149605 0 1 1 -106.29921,0 53.149605,53.149605 0 1 1 106.29921,0 z"
       transform="matrix(1,0,0,-1,159.44885,1148.0314)" />
    <path
       sodipodi:type="arc"
       style="fill:#000000;fill-opacity:1;stroke:none"
       id="path3033"
       sodipodi:cx="265.74802"
       sodipodi:cy="95.669266"
       sodipodi:rx="53.149605"
       sodipodi:ry="53.149605"
       d="m 318.89762,95.669266 a 53.149605,53.149605 0 1 1 -106.29921,0 53.149605,53.149605 0 1 1 106.29921,0 z"
       transform="matrix(1,0,0,-1,159.44887,899.99994)" />
    <path
       style="fill:none;stroke:#7d7d7d;stroke-width:0.35433072;stroke-linecap:butt;stroke-linejoin:miter;stroke-miterlimit:4;stroke-opacity:1;stroke-dasharray:2.83464567, 2.83464567;stroke-dashoffset:0"
       d="M 425.19689,804.33066 318.89768,946.06295"
       id="path3035"
       inkscape:connector-curvature="0" />
    <rect
       inkscape:transform-center-y="-5.326556"
       inkscape:transform-center-x="-37.203066"
       rx="1.6219973e-006"
       transform="matrix(0.59974995,-0.80018748,-0.80018748,-0.59974995,0,0)"
       y="-822.63452"
       x="-441.75311"
       height="53.149605"
       width="53.149605"
       id="rect3037"
       style="fill:#ffffff;fill-opacity:1;stroke:none" />
    <rect
       style="fill:#ffffff;fill-opacity:1;stroke:none"
       id="rect3039"
       width="53.149605"
       height="53.149605"
       x="-388.60355"
       y="-875.78412"
       transform="matrix(0.59974995,-0.80018748,-0.80018748,-0.59974995,0,0)"
       rx="1.6219973e-006"
       inkscape:transform-center-x="-37.203044"
       inkscape:transform-center-y="-5.326553" />
    <rect
       style="fill:#ffffff;fill-opacity:1;stroke:none"
       id="rect3041"
       width="53.149605"
       height="53.149605"
       x="584.64569"
       y="-999.21259"
       rx="1.6219973e-006"
       transform="scale(1,-1)" />
    <rect
       rx="1.6219973e-006"
       y="-946.06299"
       x="637.79529"
       height="53.149605"
       width="53.149605"
       id="rect3043"
       style="fill:#ffffff;fill-opacity:1;stroke:none"
       transform="scale(1,-1)" />
    <path
       style="fill:none;stroke:#7f7f7f;stroke-width:0.35433072;stroke-linecap:butt;stroke-linejoin:miter;stroke-miterlimit:4;stroke-opacity:1;stroke-dasharray:none"
       d="m 637.79532,892.91334 -159.44882,0 0,-88.58268"
       id="path3045"
       inkscape:connector-curvature="0" />
    <path
       transform="matrix(1,0,0,-1,159.44885,1148.0314)"
       d="m 531.49607,201.96848 a 53.149605,53.149605 0 1 1 -106.29921,0 53.149605,53.149605 0 1 1 106.29921,0 z"
       sodipodi:ry="53.149605"
       sodipodi:rx="53.149605"
       sodipodi:cy="201.96848"
       sodipodi:cx="478.34647"
       id="path3047"
       style="fill:none;stroke:#7f7f7f;stroke-width:0.35433072;stroke-linecap:round;stroke-linejoin:miter;stroke-miterlimit:4;stroke-opacity:1;stroke-dasharray:none;stroke-dashoffset:0"
       sodipodi:type="arc" />
    <path
       style="fill:#ffffff;fill-opacity:1;stroke:none"
       d="m 318.89768,946.06296 53.14961,-70.86614 -106.29922,0 0,70.86614 53.14961,0"
       id="path3049"
       inkscape:connector-curvature="0" />
    <path
       style="fill:none;stroke:#808080;stroke-width:0.35433072;stroke-linecap:butt;stroke-linejoin:miter;stroke-miterlimit:4;stroke-opacity:1;stroke-dasharray:none"
       d="m 318.89768,892.91334 53.14961,0 0,-88.58268"
       id="path3051"
       inkscape:connector-curvature="0" />
    <path
       inkscape:connector-curvature="0"
       id="path3053"
       d="m 318.89768,946.06296 -53.14961,70.86614 106.29922,0 0,-70.86614 -53.14961,0"
       style="fill:#ffffff;fill-opacity:1;stroke:none" />
    <path
       style="fill:none;stroke:#7f7f7f;stroke-width:0.35433072;stroke-linecap:butt;stroke-linejoin:miter;stroke-miterlimit:4;stroke-opacity:1;stroke-dasharray:none"
       d="m 318.89768,999.21255 318.89764,0"
       id="path3055"
       inkscape:connector-curvature="0" />
    <path
       transform="matrix(1,0,0,-1,159.44885,1148.0314)"
       d="m 212.59843,201.96848 a 53.149605,53.149605 0 1 1 -106.29921,0 53.149605,53.149605 0 1 1 106.29921,0 z"
       sodipodi:ry="53.149605"
       sodipodi:rx="53.149605"
       sodipodi:cy="201.96848"
       sodipodi:cx="159.44882"
       id="path3057"
       style="fill:none;stroke:#7f7f7f;stroke-width:0.35433072;stroke-linecap:round;stroke-linejoin:miter;stroke-miterlimit:4;stroke-opacity:1;stroke-dasharray:none;stroke-dashoffset:0"
       sodipodi:type="arc" />
    <path
       transform="matrix(1,0,0,-1,159.44887,899.99994)"
       d="m 318.89762,95.669266 a 53.149605,53.149605 0 1 1 -106.29921,0 53.149605,53.149605 0 1 1 106.29921,0 z"
       sodipodi:ry="53.149605"
       sodipodi:rx="53.149605"
       sodipodi:cy="95.669266"
       sodipodi:cx="265.74802"
       id="path3059"
       style="fill:none;stroke:#7f7f7f;stroke-width:0.35433072;stroke-linecap:round;stroke-linejoin:miter;stroke-miterlimit:4;stroke-opacity:1;stroke-dasharray:none;stroke-dashoffset:0"
       sodipodi:type="arc" />
    <path
       transform="matrix(1,0,0,-1,159.50082,651.8723)"
       d="m 212.59843,201.96848 a 53.149605,53.149605 0 1 1 -106.29921,0 53.149605,53.149605 0 1 1 106.29921,0 z"
       sodipodi:ry="53.149605"
       sodipodi:rx="53.149605"
       sodipodi:cy="201.96848"
       sodipodi:cx="159.44882"
       id="path3065"
       style="fill:#000000;fill-opacity:1;stroke:none"
       sodipodi:type="arc" />
    <path
       transform="matrix(1,0,0,-1,159.50082,651.8723)"
       d="m 531.49607,201.96848 a 53.149605,53.149605 0 1 1 -106.29921,0 53.149605,53.149605 0 1 1 106.29921,0 z"
       sodipodi:ry="53.149605"
       sodipodi:rx="53.149605"
       sodipodi:cy="201.96848"
       sodipodi:cx="478.34647"
       id="path3067"
       style="fill:#000000;fill-opacity:1;stroke:none"
       sodipodi:type="arc" />
    <path
       transform="matrix(1,0,0,-1,159.50083,403.8408)"
       d="m 318.89762,95.669266 a 53.149605,53.149605 0 1 1 -106.29921,0 53.149605,53.149605 0 1 1 106.29921,0 z"
       sodipodi:ry="53.149605"
       sodipodi:rx="53.149605"
       sodipodi:cy="95.669266"
       sodipodi:cx="265.74802"
       id="path3069"
       style="fill:#000000;fill-opacity:1;stroke:none"
       sodipodi:type="arc" />
    <path
       inkscape:connector-curvature="0"
       id="path3071"
       d="M 425.24885,308.17153 318.94964,449.90382"
       style="fill:none;stroke:#7d7d7d;stroke-width:0.35433072;stroke-linecap:butt;stroke-linejoin:miter;stroke-miterlimit:4;stroke-opacity:1;stroke-dasharray:2.83464567, 2.83464567;stroke-dashoffset:0" />
    <rect
       style="fill:#ffffff;fill-opacity:1;stroke:none"
       id="rect3073"
       width="53.149605"
       height="53.149605"
       x="-44.701656"
       y="-578.25427"
       transform="matrix(0.59974995,-0.80018748,-0.80018748,-0.59974995,0,0)"
       rx="1.6219973e-006"
       inkscape:transform-center-x="-37.203052"
       inkscape:transform-center-y="-5.3265814" />
    <path
       inkscape:connector-curvature="0"
       id="path3075"
       d="m 318.94964,449.90382 53.14961,-70.86614 0,70.86614 z"
       style="fill:#ffffff;fill-opacity:1;stroke:none" />
    <path
       style="fill:#ffffff;fill-opacity:1;stroke:none"
       d="m 318.94964,449.90382 -53.14961,70.86614 0,-70.86614 z"
       id="path3077"
       inkscape:connector-curvature="0" />
    <rect
       inkscape:transform-center-y="-5.3265755"
       inkscape:transform-center-x="-37.203061"
       rx="1.6219973e-006"
       transform="matrix(0.59974995,-0.80018748,-0.80018748,-0.59974995,0,0)"
       y="-525.10468"
       x="8.4479418"
       height="53.149605"
       width="53.149605"
       id="rect3079"
       style="fill:#ffffff;fill-opacity:1;stroke:none" />
    <rect
       rx="1.6219973e-006"
       y="-449.90381"
       x="584.69769"
       height="53.149605"
       width="53.149605"
       id="rect3081"
       style="fill:#ffffff;fill-opacity:1;stroke:none"
       transform="scale(1,-1)" />
    <rect
       style="fill:#ffffff;fill-opacity:1;stroke:none"
       id="rect3083"
       width="53.149605"
       height="53.149605"
       x="637.84735"
       y="-503.05341"
       rx="1.6219973e-006"
       transform="scale(1,-1)" />
    <path
       inkscape:connector-curvature="0"
       id="path3085"
       d="m 318.94964,396.75421 53.14961,0 0,-88.58268"
       style="fill:none;stroke:#808080;stroke-width:0.35433072;stroke-linecap:butt;stroke-linejoin:miter;stroke-miterlimit:4;stroke-opacity:1;stroke-dasharray:none" />
    <path
       inkscape:connector-curvature="0"
       id="path3087"
       d="m 318.94964,503.05342 318.89764,0"
       style="fill:none;stroke:#7f7f7f;stroke-width:0.35433072;stroke-linecap:butt;stroke-linejoin:miter;stroke-miterlimit:4;stroke-opacity:1;stroke-dasharray:none" />
    <path
       inkscape:connector-curvature="0"
       id="path3089"
       d="m 637.84728,396.75421 -159.44882,0 0,-88.58268"
       style="fill:none;stroke:#7f7f7f;stroke-width:0.35433072;stroke-linecap:butt;stroke-linejoin:miter;stroke-miterlimit:4;stroke-opacity:1;stroke-dasharray:none" />
    <path
       sodipodi:type="arc"
       style="fill:none;stroke:#7f7f7f;stroke-width:0.35433072;stroke-linecap:round;stroke-linejoin:miter;stroke-miterlimit:4;stroke-opacity:1;stroke-dasharray:none;stroke-dashoffset:0"
       id="path3091"
       sodipodi:cx="478.34647"
       sodipodi:cy="201.96848"
       sodipodi:rx="53.149605"
       sodipodi:ry="53.149605"
       d="m 531.49607,201.96848 a 53.149605,53.149605 0 1 1 -106.29921,0 53.149605,53.149605 0 1 1 106.29921,0 z"
       transform="matrix(1,0,0,-1,159.50082,651.8723)" />
    <path
       sodipodi:type="arc"
       style="fill:none;stroke:#7f7f7f;stroke-width:0.35433072;stroke-linecap:round;stroke-linejoin:miter;stroke-miterlimit:4;stroke-opacity:1;stroke-dasharray:none;stroke-dashoffset:0"
       id="path3093"
       sodipodi:cx="159.44882"
       sodipodi:cy="201.96848"
       sodipodi:rx="53.149605"
       sodipodi:ry="53.149605"
       d="m 212.59843,201.96848 a 53.149605,53.149605 0 1 1 -106.29921,0 53.149605,53.149605 0 1 1 106.29921,0 z"
       transform="matrix(1,0,0,-1,159.50082,651.8723)" />
    <path
       sodipodi:type="arc"
       style="fill:none;stroke:#7f7f7f;stroke-width:0.35433072;stroke-linecap:round;stroke-linejoin:miter;stroke-miterlimit:4;stroke-opacity:1;stroke-dasharray:none;stroke-dashoffset:0"
       id="path3095"
       sodipodi:cx="265.74802"
       sodipodi:cy="95.669266"
       sodipodi:rx="53.149605"
       sodipodi:ry="53.149605"
       d="m 318.89762,95.669266 a 53.149605,53.149605 0 1 1 -106.29921,0 53.149605,53.149605 0 1 1 106.29921,0 z"
       transform="matrix(1,0,0,-1,159.50083,403.8408)" />
  </g>
</svg>
