<?xml version="1.0" encoding="UTF-8" standalone="no"?>
<!-- Created with Inkscape (http://www.inkscape.org/) -->

<svg
   xmlns:dc="http://purl.org/dc/elements/1.1/"
   xmlns:cc="http://creativecommons.org/ns#"
   xmlns:rdf="http://www.w3.org/1999/02/22-rdf-syntax-ns#"
   xmlns:svg="http://www.w3.org/2000/svg"
   xmlns="http://www.w3.org/2000/svg"
   xmlns:sodipodi="http://sodipodi.sourceforge.net/DTD/sodipodi-0.dtd"
   xmlns:inkscape="http://www.inkscape.org/namespaces/inkscape"
   width="744.09448"
   height="1052.3622"
   id="svg2"
   version="1.1"
   inkscape:version="0.48.2 r9819"
   sodipodi:docname="MicronHolder1_Markers_v01.svg">
  <defs
     id="defs4" />
  <sodipodi:namedview
     id="base"
     pagecolor="#ffffff"
     bordercolor="#666666"
     borderopacity="1.0"
     inkscape:pageopacity="0.0"
     inkscape:pageshadow="2"
     inkscape:zoom="2"
     inkscape:cx="461.94729"
     inkscape:cy="635.1307"
     inkscape:document-units="mm"
     inkscape:current-layer="layer1"
     showgrid="true"
     inkscape:snap-global="true"
     objecttolerance="10000"
     showguides="true"
     inkscape:guide-bbox="true"
     units="mm"
     inkscape:window-width="1827"
     inkscape:window-height="1173"
     inkscape:window-x="-9"
     inkscape:window-y="-9"
     inkscape:window-maximized="1"
     guidetolerance="10000">
    <inkscape:grid
       type="xygrid"
       id="grid3026"
       units="mm"
       empspacing="5"
       visible="true"
       enabled="true"
       snapvisiblegridlinesonly="true" />
  </sodipodi:namedview>
  <metadata
     id="metadata7">
    <rdf:RDF>
      <cc:Work
         rdf:about="">
        <dc:format>image/svg+xml</dc:format>
        <dc:type
           rdf:resource="http://purl.org/dc/dcmitype/StillImage" />
        <dc:title />
      </cc:Work>
    </rdf:RDF>
  </metadata>
  <g
     inkscape:label="Layer 1"
     inkscape:groupmode="layer"
     id="layer1"
     transform="translate(0,-2.5390623e-6)">
    <rect
       style="fill:#ffffff;fill-opacity:1;stroke:#cbcbcb;stroke-width:0.40000001;stroke-linecap:round;stroke-linejoin:miter;stroke-miterlimit:4;stroke-opacity:1;stroke-dasharray:none"
       id="rect2985"
       width="453.5433"
       height="106.29921"
       x="141.22823"
       y="237.41206"
       rx="1.6219973e-006"
       ry="0" />
    <path
       sodipodi:type="arc"
       style="fill:none;stroke:#000000;stroke-width:1;stroke-linecap:round;stroke-linejoin:miter;stroke-miterlimit:4;stroke-opacity:1;stroke-dasharray:none"
       id="path3759"
       sodipodi:cx="221.42857"
       sodipodi:cy="295.21933"
       sodipodi:rx="48.57143"
       sodipodi:ry="48.57143"
       d="m 270,295.21933 a 48.57143,48.57143 0 1 1 -97.14286,0 48.57143,48.57143 0 1 1 97.14286,0 z"
       transform="matrix(1.0832423,0,0,1.0832423,-45.513886,-29.242904)" />
    <path
       transform="matrix(1.0942566,0,0,1.0942566,-47.859589,-32.576363)"
       d="m 270,295.21933 a 48.57143,48.57143 0 1 1 -97.14286,0 48.57143,48.57143 0 1 1 97.14286,0 z"
       sodipodi:ry="48.57143"
       sodipodi:rx="48.57143"
       sodipodi:cy="295.21933"
       sodipodi:cx="221.42857"
       id="path3761"
       style="fill:#000000;fill-opacity:1;stroke:#cbcbcb;stroke-width:0.36006179;stroke-miterlimit:4;stroke-opacity:1;stroke-dasharray:none"
       sodipodi:type="arc" />
    <path
       transform="matrix(1.0942566,0,0,1.0942566,157.62564,-174.15249)"
       d="m 270,295.21933 a 48.57143,48.57143 0 1 1 -97.14286,0 48.57143,48.57143 0 1 1 97.14286,0 z"
       sodipodi:ry="48.57143"
       sodipodi:rx="48.57143"
       sodipodi:cy="295.21933"
       sodipodi:cx="221.42857"
       id="path3761-6"
       style="fill:#000000;fill-opacity:1;stroke:none"
       sodipodi:type="arc" />
    <path
       transform="matrix(1.09257,0,0,1.09257,299.75316,-32.007646)"
       d="m 270,295.21933 a 48.57143,48.57143 0 1 1 -97.14286,0 48.57143,48.57143 0 1 1 97.14286,0 z"
       sodipodi:ry="48.57143"
       sodipodi:rx="48.57143"
       sodipodi:cy="295.21933"
       sodipodi:cx="221.42857"
       id="path3761-6-1"
       style="fill:#000000;fill-opacity:1;stroke:none"
       sodipodi:type="arc" />
    <path
       style="fill:none;stroke:#7a7a7a;stroke-width:0.17716534;stroke-linecap:butt;stroke-linejoin:miter;stroke-miterlimit:4;stroke-opacity:1;stroke-dasharray:1.06299213, 1.06299213;stroke-dashoffset:0"
       d="M 194.37157,290.56713 399.89826,148.94905"
       id="path3812"
       inkscape:connector-curvature="0" />
    <rect
       style="fill:#ffffff;fill-opacity:1;stroke:none"
       id="rect3814"
       width="53.57143"
       height="54.285713"
       x="191.0975"
       y="295.32816"
       rx="1.6219973e-006"
       transform="matrix(0.82326722,-0.56765402,0.56765402,0.82326722,0,0)" />
    <rect
       transform="matrix(0.82326722,-0.56765402,0.56765402,0.82326722,0,0)"
       rx="1.6219973e-006"
       y="349.62152"
       x="244.66634"
       height="54.285713"
       width="53.57143"
       id="rect3816-2"
       style="fill:#ffffff;fill-opacity:1;stroke:none" />
    <rect
       style="fill:#ffffff;fill-opacity:1;stroke:none"
       id="rect3836"
       width="53.149605"
       height="53.149605"
       x="-5.3014984"
       y="296.37146"
       rx="1.6219973e-006"
       transform="matrix(0.82263073,-0.56857602,0.56857602,0.82263073,0,0)" />
    <rect
       style="fill:#ffffff;fill-opacity:1;stroke:none"
       id="rect3838"
       width="53.149605"
       height="53.149605"
       x="194.35695"
       y="290.56067"
       rx="1.6219973e-006" />
    <rect
       transform="matrix(0.82263073,-0.56857602,0.56857602,0.82263073,0,0)"
       rx="1.6219973e-006"
       y="349.52841"
       x="-58.47242"
       height="53.149605"
       width="53.149605"
       id="rect3840"
       style="fill:#ffffff;fill-opacity:1;stroke:none" />
    <rect
       rx="1.6219973e-006"
       y="237.41222"
       x="141.20851"
       height="53.149605"
       width="53.149605"
       id="rect3842"
       style="fill:#ffffff;fill-opacity:1;stroke:none" />
    <rect
       rx="1.6219973e-006"
       y="290.57086"
       x="488.53879"
       height="53.149605"
       width="53.149605"
       id="rect3844"
       style="fill:#ffffff;fill-opacity:1;stroke:none" />
    <rect
       style="fill:#ffffff;fill-opacity:1;stroke:none"
       id="rect3846"
       width="53.149605"
       height="53.149605"
       x="541.68872"
       y="237.41078"
       rx="1.6219973e-006" />
    <path
       sodipodi:type="arc"
       style="fill:none;stroke:#7d7d7d;stroke-width:0.32380953;stroke-miterlimit:4;stroke-opacity:1;stroke-dasharray:none"
       id="path3848"
       sodipodi:cx="221.42857"
       sodipodi:cy="295.21933"
       sodipodi:rx="48.57143"
       sodipodi:ry="48.57143"
       d="m 270,295.21933 a 48.57143,48.57143 0 1 1 -97.14286,0 48.57143,48.57143 0 1 1 97.14286,0 z"
       transform="matrix(1.0942566,0,0,1.0942566,-47.859589,-32.576363)" />
    <path
       sodipodi:type="arc"
       style="fill:none;stroke:#808080;stroke-width:0.32430938;stroke-linecap:round;stroke-linejoin:miter;stroke-miterlimit:4;stroke-opacity:1;stroke-dasharray:none"
       id="path3850"
       sodipodi:cx="221.42857"
       sodipodi:cy="295.21933"
       sodipodi:rx="48.57143"
       sodipodi:ry="48.57143"
       d="m 270,295.21933 a 48.57143,48.57143 0 1 1 -97.14286,0 48.57143,48.57143 0 1 1 97.14286,0 z"
       transform="matrix(1.09257,0,0,1.09257,299.75316,-32.007646)" />
    <path
       sodipodi:type="arc"
       style="fill:none;stroke:#818181;stroke-width:0.32380953;stroke-miterlimit:4;stroke-opacity:1;stroke-dasharray:none"
       id="path3852"
       sodipodi:cx="221.42857"
       sodipodi:cy="295.21933"
       sodipodi:rx="48.57143"
       sodipodi:ry="48.57143"
       d="m 270,295.21933 a 48.57143,48.57143 0 1 1 -97.14286,0 48.57143,48.57143 0 1 1 97.14286,0 z"
       transform="matrix(1.0942566,0,0,1.0942566,157.62564,-174.15249)" />
    <path
       transform="matrix(1.0832423,0,0,1.0832423,-45.513886,307.37127)"
       d="m 270,295.21933 a 48.57143,48.57143 0 1 1 -97.14286,0 48.57143,48.57143 0 1 1 97.14286,0 z"
       sodipodi:ry="48.57143"
       sodipodi:rx="48.57143"
       sodipodi:cy="295.21933"
       sodipodi:cx="221.42857"
       id="path3858"
       style="fill:none;stroke:#000000;stroke-width:1;stroke-linecap:round;stroke-linejoin:miter;stroke-miterlimit:4;stroke-opacity:1;stroke-dasharray:none"
       sodipodi:type="arc" />
    <path
       sodipodi:type="arc"
       style="fill:#000000;fill-opacity:1;stroke:#cbcbcb;stroke-width:0.36006179;stroke-miterlimit:4;stroke-opacity:1;stroke-dasharray:none"
       id="path3860"
       sodipodi:cx="221.42857"
       sodipodi:cy="295.21933"
       sodipodi:rx="48.57143"
       sodipodi:ry="48.57143"
       d="m 270,295.21933 a 48.57143,48.57143 0 1 1 -97.14286,0 48.57143,48.57143 0 1 1 97.14286,0 z"
       transform="matrix(1.0942566,0,0,1.0942566,-47.85959,304.11986)" />
    <path
       sodipodi:type="arc"
       style="fill:#000000;fill-opacity:1;stroke:none"
       id="path3862"
       sodipodi:cx="221.42857"
       sodipodi:cy="295.21933"
       sodipodi:rx="48.57143"
       sodipodi:ry="48.57143"
       d="m 270,295.21933 a 48.57143,48.57143 0 1 1 -97.14286,0 48.57143,48.57143 0 1 1 97.14286,0 z"
       transform="matrix(1.0942566,0,0,1.0942566,157.62564,162.46168)" />
    <path
       sodipodi:type="arc"
       style="fill:#000000;fill-opacity:1;stroke:none"
       id="path3864"
       sodipodi:cx="221.42857"
       sodipodi:cy="295.21933"
       sodipodi:rx="48.57143"
       sodipodi:ry="48.57143"
       d="m 270,295.21933 a 48.57143,48.57143 0 1 1 -97.14286,0 48.57143,48.57143 0 1 1 97.14286,0 z"
       transform="matrix(1.09257,0,0,1.09257,299.75316,304.60653)" />
    <rect
       transform="matrix(0.7069792,-0.70723434,0.70723434,0.7069792,0,0)"
       rx="1.6219973e-006"
       y="625.95306"
       x="-114.25449"
       height="54.285713"
       width="53.57143"
       id="rect3868"
       style="fill:#ffffff;fill-opacity:1;stroke:none" />
    <rect
       rx="1.6219973e-006"
       y="573.9873"
       x="194.41946"
       height="53.149605"
       width="53.149605"
       id="rect3874"
       style="fill:#ffffff;fill-opacity:1;stroke:none" />
    <rect
       style="fill:#ffffff;fill-opacity:1;stroke:none"
       id="rect3878"
       width="53.149605"
       height="53.149605"
       x="141.23978"
       y="627.18262"
       rx="1.6219973e-006" />
    <path
       transform="matrix(1.0942566,0,0,1.0942566,-47.85959,304.03781)"
       d="m 270,295.21933 a 48.57143,48.57143 0 1 1 -97.14286,0 48.57143,48.57143 0 1 1 97.14286,0 z"
       sodipodi:ry="48.57143"
       sodipodi:rx="48.57143"
       sodipodi:cy="295.21933"
       sodipodi:cx="221.42857"
       id="path3884"
       style="fill:none;stroke:#9b9b9b;stroke-width:0.32380953;stroke-miterlimit:4;stroke-opacity:1;stroke-dasharray:none"
       sodipodi:type="arc" />
    <rect
       style="fill:#ffffff;fill-opacity:1;stroke:none"
       id="rect3940"
       width="53.57143"
       height="54.285713"
       x="-60.673077"
       y="571.66742"
       rx="1.6219973e-006"
       transform="matrix(0.7069792,-0.70723434,0.70723434,0.7069792,0,0)" />
    <path
       transform="matrix(1.0942566,0,0,1.0942566,157.62564,162.46168)"
       d="m 270,295.21933 a 48.57143,48.57143 0 1 1 -97.14286,0 48.57143,48.57143 0 1 1 97.14286,0 z"
       sodipodi:ry="48.57143"
       sodipodi:rx="48.57143"
       sodipodi:cy="295.21933"
       sodipodi:cx="221.42857"
       id="path3888"
       style="fill:none;stroke:#818181;stroke-width:0.32380953;stroke-miterlimit:4;stroke-opacity:1;stroke-dasharray:none"
       sodipodi:type="arc" />
    <path
       style="fill:#ffffff;fill-opacity:1;stroke:none"
       d="m 541.70787,627.16129 -53.20978,-53.20979 0,53.20979 z"
       id="path3930"
       inkscape:connector-curvature="0" />
    <path
       inkscape:connector-curvature="0"
       id="path3866"
       d="M 541.70247,627.17323 399.90544,485.57425"
       style="fill:none;stroke:#7a7a7a;stroke-width:0.1984252;stroke-linecap:butt;stroke-linejoin:miter;stroke-miterlimit:4;stroke-opacity:1;stroke-dasharray:1.58740157, 1.58740157;stroke-dashoffset:0" />
    <path
       inkscape:connector-curvature="0"
       id="path3932"
       d="m 541.70235,627.17785 53.20978,53.20979 0,-53.20979 z"
       style="fill:#ffffff;fill-opacity:1;stroke:none" />
    <path
       transform="matrix(1.09257,0,0,1.09257,299.75316,304.60653)"
       d="m 270,295.21933 a 48.57143,48.57143 0 1 1 -97.14286,0 48.57143,48.57143 0 1 1 97.14286,0 z"
       sodipodi:ry="48.57143"
       sodipodi:rx="48.57143"
       sodipodi:cy="295.21933"
       sodipodi:cx="221.42857"
       id="path3886"
       style="fill:none;stroke:#7d7d7d;stroke-width:0.32430938;stroke-linecap:round;stroke-linejoin:miter;stroke-miterlimit:4;stroke-opacity:1;stroke-dasharray:none"
       sodipodi:type="arc" />
    <path
       style="fill:none;stroke:#808080;stroke-width:0.35433072;stroke-linecap:butt;stroke-linejoin:miter;stroke-miterlimit:4;stroke-opacity:1;stroke-dasharray:none"
       d="m 194.31957,680.23849 347.37725,-0.011"
       id="path3902"
       inkscape:connector-curvature="0" />
    <path
       inkscape:connector-curvature="0"
       id="path3904"
       d="m 194.36376,573.9736 347.37725,-0.011"
       style="fill:none;stroke:#808080;stroke-width:0.35433072;stroke-linecap:butt;stroke-linejoin:miter;stroke-miterlimit:4;stroke-opacity:1;stroke-dasharray:none" />
    <path
       style="fill:none;stroke:#818181;stroke-width:0.35433072;stroke-linecap:butt;stroke-linejoin:miter;stroke-miterlimit:4;stroke-opacity:1;stroke-dasharray:none"
       d="m 453.09134,485.38187 0,88.5"
       id="path3924"
       inkscape:connector-curvature="0" />
    <path
       inkscape:connector-curvature="0"
       id="path3926"
       d="m 346.67561,485.55106 0,88.5"
       style="fill:none;stroke:#818181;stroke-width:0.35433072;stroke-linecap:butt;stroke-linejoin:miter;stroke-miterlimit:4;stroke-opacity:1;stroke-dasharray:none" />
    <path
       style="fill:none;stroke:#7e7e7e;stroke-width:0.35433072;stroke-linecap:butt;stroke-linejoin:miter;stroke-miterlimit:4;stroke-opacity:1;stroke-dasharray:none"
       d="m 346.79354,148.78447 0,88.62499"
       id="path3942"
       inkscape:connector-curvature="0" />
    <path
       inkscape:connector-curvature="0"
       id="path3944"
       d="m 453.04354,148.95562 0,88.62499"
       style="fill:none;stroke:#7e7e7e;stroke-width:0.35433072;stroke-linecap:butt;stroke-linejoin:miter;stroke-miterlimit:4;stroke-opacity:1;stroke-dasharray:none" />
    <path
       inkscape:connector-curvature="0"
       id="path3948"
       d="m 194.51699,237.40484 347.23915,0.005"
       style="fill:none;stroke:#7e7e7e;stroke-width:0.35433072;stroke-linecap:butt;stroke-linejoin:miter;stroke-miterlimit:4;stroke-opacity:1;stroke-dasharray:none"
       sodipodi:nodetypes="cc" />
    <path
       sodipodi:nodetypes="cc"
       style="fill:none;stroke:#7e7e7e;stroke-width:0.35433072;stroke-linecap:butt;stroke-linejoin:miter;stroke-miterlimit:4;stroke-opacity:1;stroke-dasharray:none"
       d="m 194.51699,237.40484 347.23915,0.005"
       id="path3950"
       inkscape:connector-curvature="0" />
    <path
       sodipodi:nodetypes="cc"
       style="fill:none;stroke:#7e7e7e;stroke-width:0.35433072;stroke-linecap:butt;stroke-linejoin:miter;stroke-miterlimit:4;stroke-opacity:1;stroke-dasharray:none"
       d="m 194.51699,343.68609 347.23915,0.005"
       id="path3952"
       inkscape:connector-curvature="0" />
    <path
       inkscape:connector-curvature="0"
       id="path3954"
       d="m 194.51699,343.68609 347.23915,0.005"
       style="fill:none;stroke:#7e7e7e;stroke-width:0.35433072;stroke-linecap:butt;stroke-linejoin:miter;stroke-miterlimit:4;stroke-opacity:1;stroke-dasharray:none"
       sodipodi:nodetypes="cc" />
  </g>
</svg>
