<?xml version="1.0" encoding="UTF-8" standalone="no"?>
<!-- Created with Inkscape (http://www.inkscape.org/) -->

<svg
   xmlns:dc="http://purl.org/dc/elements/1.1/"
   xmlns:cc="http://creativecommons.org/ns#"
   xmlns:rdf="http://www.w3.org/1999/02/22-rdf-syntax-ns#"
   xmlns:svg="http://www.w3.org/2000/svg"
   xmlns="http://www.w3.org/2000/svg"
   xmlns:xlink="http://www.w3.org/1999/xlink"
   xmlns:sodipodi="http://sodipodi.sourceforge.net/DTD/sodipodi-0.dtd"
   xmlns:inkscape="http://www.inkscape.org/namespaces/inkscape"
   width="744.09448819"
   height="1052.3622047"
   id="svg2"
   version="1.1"
   inkscape:version="0.48.3.1 r9886"
   sodipodi:docname="PlusLogo2.svg"
   inkscape:export-filename="F:\devel\PlusTrunk\doc\overview\PlusLogo2.png"
   inkscape:export-xdpi="300.09564"
   inkscape:export-ydpi="300.09564">
  <defs
     id="defs4" />
  <sodipodi:namedview
     id="base"
     pagecolor="#ffffff"
     bordercolor="#666666"
     borderopacity="1.0"
     inkscape:pageopacity="0.0"
     inkscape:pageshadow="2"
     inkscape:zoom="0.7"
     inkscape:cx="365.89067"
     inkscape:cy="711.95568"
     inkscape:document-units="px"
     inkscape:current-layer="layer1"
     showgrid="false"
     inkscape:window-width="1600"
     inkscape:window-height="838"
     inkscape:window-x="-8"
     inkscape:window-y="-8"
     inkscape:window-maximized="1" />
  <metadata
     id="metadata7">
    <rdf:RDF>
      <cc:Work
         rdf:about="">
        <dc:format>image/svg+xml</dc:format>
        <dc:type
           rdf:resource="http://purl.org/dc/dcmitype/StillImage" />
        <dc:title></dc:title>
      </cc:Work>
    </rdf:RDF>
  </metadata>
  <g
     inkscape:label="Layer 1"
     inkscape:groupmode="layer"
     id="layer1">
    <path
       style="fill:#a13232;fill-opacity:1;stroke:none"
       d="m 317.28922,521.19307 -73.19014,-33.57011 -1.68854,34.6297 264.99173,2.30482 -1.05089,-262.7106 -75.23633,209.17249 z"
       id="path4014"
       inkscape:connector-curvature="0"
       sodipodi:nodetypes="ccccccc" />
    <rect
       style="fill:none;stroke:#a13232;stroke-width:6.57655810999999970;stroke-linecap:round;stroke-linejoin:miter;stroke-miterlimit:4;stroke-opacity:1;stroke-dasharray:none"
       id="rect3769"
       width="267.25201"
       height="267.25201"
       x="241.23114"
       y="257.11136" />
    <text
       xml:space="preserve"
       style="font-size:96.64173126000001400px;font-style:normal;font-weight:normal;line-height:125%;letter-spacing:0px;word-spacing:0px;fill:#a13232;fill-opacity:1;stroke:none;font-family:Sans"
       x="165.55597"
       y="841.65155"
       id="text2991"
       sodipodi:linespacing="125%"
       transform="scale(1.452348,0.68854021)"><tspan
         sodipodi:role="line"
         id="tspan2993"
         x="165.55597"
         y="841.65155"
         style="font-family:Bauhaus 93;-inkscape-font-specification:Bauhaus 93;fill:#a13232;fill-opacity:1">PLUS</tspan></text>
    <g
       id="g4246"
       transform="matrix(0.9999663,-0.00820936,0.00820936,0.9999663,-5.2403851,-1.164849)">
      <use
         id="use2989"
         transform="matrix(-0.67609716,0.73681248,0.73681248,0.67609716,258.45502,-113.61685)"
         xlink:href="#path2985"
         inkscape:tiled-clone-of="#path2985"
         y="0"
         x="0"
         width="1"
         height="1" />
      <g
         id="g4242">
        <path
           style="fill:#a13232;fill-opacity:1;stroke:none"
           d="m 369.77993,486.16686 -58.17191,25.60946 c 0,0 -23.95398,-6.62902 -20.36538,-34.66057 3.5886,-28.03155 10.52647,-31.30421 11.56383,-39.28968 1.03736,-7.98547 -27.8434,-65.58046 -37.59749,-96.8571 -9.75407,-31.27665 -3.61017,-40.70061 -1.87316,-43.17846 1.73702,-2.47786 5.20626,-3.99462 7.42036,-5.26958 -0.71572,-6.47152 -3.85724,-0.97026 8.46184,-9.19019"
           id="path2985"
           inkscape:connector-curvature="0"
           inkscape:tile-cx="294.28571"
           inkscape:tile-cy="475.93361"
           inkscape:tile-w="125.71429"
           inkscape:tile-h="252.85714"
           inkscape:tile-x0="231.42857"
           inkscape:tile-y0="349.50504"
           sodipodi:nodetypes="cczzszcc" />
        <path
           sodipodi:type="arc"
           style="fill:#a13232;fill-opacity:1;stroke:none"
           id="path3786"
           sodipodi:cx="425"
           sodipodi:cy="566.64789"
           sodipodi:rx="6.4285712"
           sodipodi:ry="4.2857141"
           d="m 431.42857,566.64789 c 0,2.36693 -2.87817,4.28571 -6.42857,4.28571 -3.5504,0 -6.42857,-1.91878 -6.42857,-4.28571 0,-2.36694 2.87817,-4.28572 6.42857,-4.28572 3.5504,0 6.42857,1.91878 6.42857,4.28572 z"
           transform="matrix(0.91401871,-0.40180272,0.40180272,0.91401871,-197.30411,86.473325)" />
      </g>
    </g>
    <path
       style="fill:none;stroke:#a13232;stroke-width:12;stroke-miterlimit:4;stroke-opacity:1;stroke-dasharray:none"
       d="m 357.11304,320.16754 c 3.65897,0.0674 7.24428,0.85109 10.55949,2.26711 3.31523,1.41602 6.36033,3.4644 8.93892,6.06123 2.57856,2.59684 4.69058,5.74211 6.13963,9.35193 1.44906,3.6098 2.09788,7.34244 2.03048,11.00139 -0.0674,3.65896 -0.85108,7.24427 -2.26711,10.5595 -1.41603,3.31521 -3.46441,6.36032 -6.06123,8.9389"
       id="path4116"
       inkscape:connector-curvature="0"
       sodipodi:nodetypes="csssssc" />
    <path
       style="fill:none;stroke:#a13232;stroke-width:12;stroke-miterlimit:4;stroke-opacity:1;stroke-dasharray:none"
       d="m 367.4501,301.54579 c 5.59181,0.10301 11.07108,1.30066 16.13756,3.46471 5.06648,2.16403 9.72018,5.29448 13.66089,9.26309 3.94071,3.96859 7.16842,8.77537 9.38289,14.29206 2.21449,5.51672 3.20612,11.22109 3.1031,16.8129 -0.10302,5.59181 -1.30066,11.07107 -3.4647,16.13755 -2.16405,5.06649 -5.29449,9.72019 -9.2631,13.66089"
       id="path4116-5"
       inkscape:connector-curvature="0"
       sodipodi:nodetypes="csssssc" />
    <path
       style="fill:none;stroke:#a13232;stroke-width:12;stroke-miterlimit:4;stroke-opacity:1;stroke-dasharray:none"
       d="m 377.76169,284.3415 c 3.6703,0.0676 7.30365,0.49447 10.85079,1.25952 3.54715,0.76504 7.00811,1.86831 10.33357,3.28873 13.30192,5.68165 24.43638,16.43779 30.25044,30.92175 2.90703,7.24199 4.20879,14.73032 4.07354,22.0709 -0.13523,7.34058 -1.70741,14.53341 -4.54824,21.18437 -2.84081,6.65097 -6.95026,12.76005 -12.16,17.93316"
       id="path4116-1"
       inkscape:connector-curvature="0"
       sodipodi:nodetypes="csssssc" />
  </g>
</svg>
